# xmcd CD database file
#
# Track frame offsets:
#	150
#	24512
#	48976
#	71416
#	105413
#	123216
#	142221
#	159947
#	191334
#	218249
#	237217
#	256674
#	285245
#
# Disc length: 4106 seconds
#
# Revision: 0
# Processed by: cddbd v1.5.2PL0 Copyright (c) Steve Scherf et al.
# Submitted via: CDex 1.79
#
DISCID=a810080d
DTITLE=The Sandy Faux Quintet - Alive and Kickin at Orleans
DYEAR=2006
DGENRE=Jazz
TTITLE0=All of You - Cole Porter
TTITLE1=Fever - John Davenport - Eddie Codley
TTITLE2=Summertime - George Gershwin
TTITLE3=Teach Me Tonight - DePaul
TTITLE4=It Was Just One of Those Things - Cole Porter
TTITLE5=Misty - Errol Garner
TTITLE6=Like Someone in Love - Van Heusen - Burke
TTITLE7=The Girl from Ipanema - Antonio Carlos Jobim
TTITLE8=Just Squeeze Me - Duke Ellington
TTITLE9=Route 66 - Bobby Troup
TTITLE10=Sunny - Bobby Hebb
TTITLE11=Moondance - Van Morrison
TTITLE12=The Best Thing for You Would Be Me - Irving Berlin
EXTD=YEAR: 2006
EXTT0=
EXTT1=
EXTT2=
EXTT3=
EXTT4=
EXTT5=
EXTT6=
EXTT7=
EXTT8=
EXTT9=
EXTT10=
EXTT11=
EXTT12=
PLAYORDER=
